<svg version="1.1" id="Layer_1" xmlns="http://www.w3.org/2000/svg" xmlns:xlink="http://www.w3.org/1999/xlink" x="0px" y="0px"
	 width="100%" viewBox="0 0 2084 2084" enable-background="new 0 0 2084 2084" xml:space="preserve">
<path fill="#FFFFFF" opacity="1.000000" stroke="none" 
	d="
M1128.000244,490.327698 
	C1307.613037,490.327698 1486.225708,490.327698 1665.586426,490.327698 
	C1665.586426,870.823730 1665.586426,1250.829102 1665.586426,1631.253662 
	C1265.672119,1631.253662 866.200684,1631.253662 466.197174,1631.253662 
	C466.197174,1251.037598 466.197174,871.233826 466.197174,490.327698 
	C686.588684,490.327698 906.794373,490.327698 1128.000244,490.327698 
M1635.665161,815.000122 
	C1635.665161,718.149841 1635.665161,621.299500 1635.665161,524.220947 
	C1254.414429,524.220947 874.350830,524.220947 494.321167,524.220947 
	C494.321167,884.156799 494.321167,1243.543579 494.321167,1603.665161 
	C498.880035,1603.665161 502.816772,1603.665161 506.753479,1603.665161 
	C878.338013,1603.665161 1249.922607,1603.664307 1621.507080,1603.668579 
	C1636.756470,1603.668701 1635.673218,1604.909790 1635.672607,1589.829468 
	C1635.662231,1332.219727 1635.665161,1074.609985 1635.665161,815.000122 
z"/>
<path fill="#FFFFFF" opacity="1.000000" stroke="none" 
	d="
M1326.000244,734.327698 
	C1352.289551,734.327698 1377.578857,734.327698 1403.599854,734.327698 
	C1403.599854,953.601990 1403.599854,1172.366211 1403.599854,1391.733032 
	C1178.730103,1391.733032 953.642029,1391.733032 728.174011,1391.733032 
	C728.174011,1316.716797 728.174011,1241.932129 728.174011,1166.425537 
	C884.867310,1166.425537 1041.054077,1166.425537 1197.786865,1166.425537 
	C1197.786865,1097.588013 1197.786865,1029.472412 1197.786865,960.579590 
	C1041.190063,960.579590 885.021301,960.579590 728.259705,960.579590 
	C728.259705,885.005737 728.259705,810.205933 728.259705,734.327698 
	C927.227966,734.327698 1126.114014,734.327698 1326.000244,734.327698 
z"/>
</svg>
