<?xml version="1.0" encoding="UTF-8"?>
<svg version="1.1" xmlns="http://www.w3.org/2000/svg" width="500" height="500">
<path d="M0 0 C156.96575342 0 156.96575342 0 187 15 C187.81082031 15.39960937 188.62164062 15.79921875 189.45703125 16.2109375 C199.60853171 21.52211214 209.26642929 28.55438698 217 37 C219.50368771 39.51612325 222.01952641 42.01931645 224.54296875 44.515625 C245.32877733 66.00759843 251.65888924 92.63163916 251.4375 121.8125 C251.43512329 122.64084351 251.43274658 123.46918701 251.43029785 124.32263184 C251.33468042 145.64737446 247.86856315 163.08246306 237.125 181.6875 C236.62097656 182.58533203 236.11695313 183.48316406 235.59765625 184.40820312 C232.51729062 189.78505618 229.18992152 194.44402143 225 199 C224.41734375 199.69867188 223.8346875 200.39734375 223.234375 201.1171875 C210.86115645 215.76968315 196.01541957 224.1999137 178 230 C177.34 230 176.68 230 176 230 C176.4846875 230.72703125 176.969375 231.4540625 177.46875 232.203125 C178.47421875 233.71132813 178.47421875 233.71132813 179.5 235.25 C180.04684448 236.0697229 180.04684448 236.0697229 180.60473633 236.90600586 C182.35848514 239.53530706 184.10996676 242.16599192 185.85546875 244.80078125 C190.52545286 251.84060804 195.28801397 258.81359522 200.06762695 265.77929688 C203.96224454 271.4626918 207.80062265 277.18055093 211.60839844 282.92236328 C214.4401971 287.18402248 217.35108546 291.38204536 220.30078125 295.5625 C223.61665149 300.31905869 226.79717009 305.1669527 230 310 C235.01384307 317.56301608 240.0352671 325.10913379 245.2734375 332.51953125 C247.98392238 336.41355365 250.59079129 340.3756396 253.203125 344.3359375 C254.3274957 346.00293927 255.49873995 347.64027425 256.734375 349.2265625 C258 351 258 351 258 353 C246.2737562 353.25522258 234.54817611 353.45049518 222.81971741 353.56993389 C217.37311497 353.62726982 211.92841661 353.70498723 206.48291016 353.82983398 C201.22427781 353.94963747 195.96747253 354.0151818 190.70758057 354.04364967 C188.70431755 354.06392658 186.70115121 354.1035277 184.69866943 354.16303062 C169.01214314 354.61047618 169.01214314 354.61047618 164.04931641 350.63833618 C161.98052328 347.83456012 160.47253515 345.14954542 159 342 C158.01674262 340.46828888 157.01854429 338.94597657 156 337.4375 C154 334 154 334 154 332 C153.34 332 152.68 332 152 332 C150.87426758 330.59814453 150.87426758 330.59814453 149.64453125 328.6328125 C149.19078125 327.91730225 148.73703125 327.20179199 148.26953125 326.46459961 C147.78871094 325.69253174 147.30789062 324.92046387 146.8125 324.125 C145.80994733 322.54471337 144.80604753 320.96528056 143.80078125 319.38671875 C143.0730249 318.24082275 143.0730249 318.24082275 142.33056641 317.07177734 C140.27191388 313.86632315 138.08512202 310.76090062 135.87890625 307.65625 C131.94121172 302.08944692 128.10107113 296.4542568 124.25097656 290.82666016 C123.15746205 289.22992409 122.05956597 287.6361905 120.9609375 286.04296875 C120.41695313 285.24503906 119.87296875 284.44710938 119.3125 283.625 C118.62607422 282.62339844 118.62607422 282.62339844 117.92578125 281.6015625 C117 280 117 280 117 278 C116.34 278 115.68 278 115 278 C113.41525413 275.65335708 111.94530029 273.30595858 110.5 270.875 C106.35217216 264.05558632 101.92938089 257.53177219 97.2265625 251.0859375 C95.07328761 248.10157405 93.03172293 245.06816354 91 242 C88.82124271 238.78568712 86.62944988 235.58032603 84.4375 232.375 C83.86064453 231.529375 83.28378906 230.68375 82.68945312 229.8125 C81.85124023 228.58660156 81.85124023 228.58660156 80.99609375 227.3359375 C80.49263428 226.59907715 79.9891748 225.8622168 79.47045898 225.10302734 C78.02543885 223.03638225 76.51303597 221.0173813 75 219 C74.67 263.22 74.34 307.44 74 353 C49.58 353 25.16 353 0 353 C0 236.51 0 120.02 0 0 Z M74 71 C74 103.34 74 135.68 74 169 C84.168125 169.0825 94.33625 169.165 104.8125 169.25 C109.59584839 169.30462402 109.59584839 169.30462402 114.47583008 169.36035156 C117.03205697 169.37204512 119.58829138 169.38223536 122.14453125 169.390625 C123.44853882 169.41108887 124.75254639 169.43155273 126.09606934 169.45263672 C136.97130723 169.45675106 147.44874108 167.20363932 156 160 C156 159.34 156 158.68 156 158 C156.57878906 157.74992187 157.15757812 157.49984375 157.75390625 157.2421875 C166.06981209 152.64313001 170.18239269 143.65839844 173 135 C176.14148715 123.52148927 175.44180596 108.53252767 170 98 C169.69191406 97.34515625 169.38382812 96.6903125 169.06640625 96.015625 C168.41569403 94.65815835 167.71582959 93.32428475 167 92 C166.34 92 165.68 92 165 92 C164.72800781 91.40960938 164.45601563 90.81921875 164.17578125 90.2109375 C159.15899955 80.77738787 149.31993904 77.23718469 139.77709961 73.85913086 C126.49046312 69.9894617 113.23411424 70.55920151 99.5 70.75 C86.8775 70.87375 86.8775 70.87375 74 71 Z " fill="#FCFCFC" transform="translate(90,47)"/>
<path d="M0 0 C6.1365777 3.79883381 10.82909551 9.2652754 12.96484375 16.23828125 C14.53203554 24.16379401 13.41404842 31.31832859 9.375 38.3125 C4.54547277 44.86685839 -0.62615595 47.99005869 -8.625 49.3125 C-15.71766418 50.1005738 -21.0919009 48.00259963 -27.625 45.3125 C-27.625 44.6525 -27.625 43.9925 -27.625 43.3125 C-28.53378906 42.93544922 -28.53378906 42.93544922 -29.4609375 42.55078125 C-33.76610034 40.08735775 -35.64868955 35.12564798 -37.9375 30.875 C-40.03514154 23.05651789 -38.36750889 16.35447935 -34.625 9.3125 C-27.47182711 -2.08039542 -12.23649617 -5.68869366 0 0 Z M-23.625 13.3125 C-23.625 13.9725 -23.625 14.6325 -23.625 15.3125 C-24.285 15.3125 -24.945 15.3125 -25.625 15.3125 C-27.65808096 20.0962199 -28.2729422 24.33993021 -26.625 29.3125 C-24.41285225 32.88973892 -21.83530159 35.52743951 -18.3125 37.8125 C-13.09700919 38.78282387 -8.34966418 38.12203625 -3.5625 35.875 C-2.923125 35.359375 -2.28375 34.84375 -1.625 34.3125 C-1.625 33.6525 -1.625 32.9925 -1.625 32.3125 C-0.965 32.3125 -0.305 32.3125 0.375 32.3125 C2.7009342 27.80600249 3.47569709 23.26563689 2.375 18.3125 C-0.22830662 14.17087584 -2.92895702 10.87784766 -7.625 9.3125 C-14.16810627 8.62553015 -18.62873625 8.84215875 -23.625 13.3125 Z " fill="#E8E8E8" transform="translate(393.625,312.6875)"/>
<path d="M0 0 C5.99884251 4.17359173 10.29262294 9.35495093 12.10546875 16.46484375 C12.91662736 24.59529404 12.88424029 31.64513853 8.10546875 38.46484375 C7.23921875 39.82609375 7.23921875 39.82609375 6.35546875 41.21484375 C1.29470305 46.27560945 -5.39364401 48.60237066 -12.45703125 48.77734375 C-19.56242857 48.68294838 -25.54004866 47.4395736 -30.96484375 42.62890625 C-37.49139796 35.50158136 -39.46910922 29.50911965 -39.24609375 19.87890625 C-38.7743264 15.29752114 -37.55188376 12.1816636 -34.89453125 8.46484375 C-34.13140625 7.39234375 -33.36828125 6.31984375 -32.58203125 5.21484375 C-24.12568827 -3.43815837 -10.88312685 -5.57041647 0 0 Z M-26.26953125 15.15234375 C-28.36703336 19.42802112 -28.60496524 22.78637602 -27.89453125 27.46484375 C-25.90433485 32.1784668 -22.45107471 35.18657202 -17.89453125 37.46484375 C-11.33257263 38.2800769 -7.31937856 37.15835681 -1.89453125 33.46484375 C-1.89453125 32.80484375 -1.89453125 32.14484375 -1.89453125 31.46484375 C-1.23453125 31.46484375 -0.57453125 31.46484375 0.10546875 31.46484375 C2.13667645 26.68553151 2.76132994 22.43242732 1.10546875 17.46484375 C-1.4899254 13.38408557 -4.35283787 10.27809986 -8.89453125 8.46484375 C-16.56334423 7.26572027 -21.11740185 9.32230259 -26.26953125 15.15234375 Z " fill="#E7E7E7" transform="translate(393.89453125,127.53515625)"/>
<path d="M0 0 C17.16 0 34.32 0 52 0 C50.29809155 3.40381691 49.30325042 4.9261476 46.6875 7.4375 C46.06230469 8.04464844 45.43710937 8.65179688 44.79296875 9.27734375 C44.20128906 9.84582031 43.60960937 10.41429688 43 11 C42.175 11.825 41.35 12.65 40.5 13.5 C39.11001369 14.88998631 37.71703993 16.27706507 36.3125 17.65234375 C35.714375 18.24144531 35.11625 18.83054687 34.5 19.4375 C33.68015625 20.23994141 33.68015625 20.23994141 32.84375 21.05859375 C30.43732714 23.59247545 28.23711497 26.31546204 26 29 C38.87 29.495 38.87 29.495 52 30 C52 33.3 52 36.6 52 40 C40.68852899 41.03628122 29.47284507 41.11933574 18.125 41.0625 C16.3580742 41.05747018 14.591147 41.05290992 12.82421875 41.04882812 C8.54944374 41.0379509 4.27473792 41.02076977 0 41 C1.76883732 37.1789065 4.02094223 34.80714922 7.0625 31.875 C10.46453483 28.75894235 10.46453483 28.75894235 13 25 C13.66 25 14.32 25 15 25 C15.22429687 24.44828125 15.44859375 23.8965625 15.6796875 23.328125 C18.4225748 18.4915545 23.05842467 14.8405093 27 11 C18.09 10.67 9.18 10.34 0 10 C0 6.7 0 3.4 0 0 Z " fill="#EAEAEA" transform="translate(354,82)"/>
<path d="M0 0 C4.83801979 -0.07463717 9.67569804 -0.12883014 14.51416016 -0.16479492 C16.15712326 -0.17980136 17.80004686 -0.20021312 19.44287109 -0.22631836 C21.81618042 -0.26306359 24.18895625 -0.27980772 26.5625 -0.29296875 C27.28679199 -0.30845261 28.01108398 -0.32393646 28.75732422 -0.33988953 C34.73936341 -0.3418256 40.04103121 0.90930004 45.0234375 4.4296875 C45.46945312 4.90664062 45.91546875 5.38359375 46.375 5.875 C46.83648437 6.34679687 47.29796875 6.81859375 47.7734375 7.3046875 C52.04527759 13.20907794 51.68112513 20.02493382 51 27 C49.33393502 32.59678117 44.79931779 36.86360372 40 40 C35.93499079 41.22543308 31.94342975 41.12598675 27.734375 41.09765625 C26.94097717 41.0962413 26.14757935 41.09482635 25.33013916 41.09336853 C22.80338728 41.08778415 20.27672496 41.07523454 17.75 41.0625 C16.03385545 41.05748298 14.31770951 41.05292043 12.6015625 41.04882812 C8.40100731 41.03781984 4.20051883 41.02056596 0 41 C0 37.37 0 33.74 0 30 C1.00377686 29.98018066 2.00755371 29.96036133 3.04174805 29.93994141 C6.77864966 29.86366251 10.51517317 29.77498014 14.25170898 29.68261719 C15.8665417 29.64441928 17.48145684 29.60955055 19.09643555 29.578125 C21.42266217 29.53227391 23.74832592 29.47431416 26.07421875 29.4140625 C27.15107185 29.39673569 27.15107185 29.39673569 28.24967957 29.37905884 C32.24658602 29.26232499 35.39334769 28.75259319 39 27 C40.13592095 21.44993678 40.13592095 21.44993678 38.8125 16.125 C35.96404562 12.78543279 33.91550003 12.08379892 29.51660156 11.68115234 C28.14153216 11.63977906 26.76613005 11.6085972 25.390625 11.5859375 C24.66381531 11.56657135 23.93700562 11.5472052 23.18817139 11.5272522 C20.87556552 11.46765729 18.56290933 11.42115242 16.25 11.375 C14.67836418 11.33680164 13.10674887 11.29774883 11.53515625 11.2578125 C7.69027158 11.16197257 3.84528893 11.07786805 0 11 C0 7.37 0 3.74 0 0 Z " fill="#E7E7E7" transform="translate(355,233)"/>
<path d="M0 0 C0 3.63 0 7.26 0 11 C-1.65 11.33 -3.3 11.66 -5 12 C-5 13.65 -5 15.3 -5 17 C-2.525 17.99 -2.525 17.99 0 19 C2.88365432 16.61352746 4.30896244 14.54348823 5.5 11.0625 C6.9782719 6.77151616 8.8301764 3.31955011 12.82421875 0.890625 C16.78606469 -0.73110009 20.80228797 -0.54377944 25 0 C29.52689611 2.30460166 32.85803431 4.98936319 34.6875 9.8125 C35.53165937 15.7216156 35.30897004 19.92624594 32 25 C27.85020267 29.24411091 24.92228163 30.6446631 19 31 C19 27.37 19 23.74 19 20 C20.32 19.34 21.64 18.68 23 18 C23 16.35 23 14.7 23 13 C21.02 12.67 19.04 12.34 17 12 C15.35 15.96 13.7 19.92 12 24 C11.34 24 10.68 24 10 24 C9.690625 24.8971875 9.690625 24.8971875 9.375 25.8125 C7.3647694 29.01059414 5.5607273 29.76993057 2 31 C-3.95897329 31.27716155 -8.46586809 30.00690727 -13 26 C-16.56245468 21.52751016 -17.64245104 17.78205939 -17 12 C-15.8526191 6.77304255 -12.12279193 4.07264682 -8 1 C-5.29120665 -0.35439668 -2.99066732 -0.06501451 0 0 Z " fill="#E3E3E3" transform="translate(371,47)"/>
<path d="M0 0 C0.28526928 3.37885612 0.46087248 6.63291991 0 10 C-2.5 12.125 -2.5 12.125 -5 13 C-4.67 14.65 -4.34 16.3 -4 18 C-2.02 18 -0.04 18 2 18 C2.268125 17.21496094 2.53625 16.42992187 2.8125 15.62109375 C5.46237855 8.51697855 8.12169066 2.74485731 15 -1 C20.38821611 -2.37790259 25.30054377 -0.71122475 30 2 C33.79863345 6.79827383 35.37934727 10.70945397 35.27734375 16.875 C34.60891399 21.99648997 31.97300937 25.17505728 28.125 28.4375 C24.75121713 30.12439143 22.71693054 30.35399338 19 30 C19 26.37 19 22.74 19 19 C20.32 18.34 21.64 17.68 23 17 C23 15.35 23 13.7 23 12 C20.69 11.67 18.38 11.34 16 11 C15.85304688 11.64066406 15.70609375 12.28132813 15.5546875 12.94140625 C13.96520577 19.07095935 11.93919208 23.84502505 7 28 C6.34 28 5.68 28 5 28 C5 28.66 5 29.32 5 30 C-0.04345271 31.00869054 -3.32176721 31.24165321 -8 29 C-11.9419649 26.17602935 -15.14028856 23.57032859 -17 19 C-17.86946933 12.58766371 -16.53065633 9.12426474 -12.71484375 3.92578125 C-8.93584523 -0.31805991 -5.44033336 -1.76010785 0 0 Z " fill="#E6E6E6" transform="translate(372,365)"/>
<path d="M0 0 C2.97 0 5.94 0 9 0 C10 1 10 1 10.09765625 4.59765625 C10.0909822 6.08596867 10.07902183 7.57426432 10.0625 9.0625 C10.05798828 9.82111328 10.05347656 10.57972656 10.04882812 11.36132812 C10.0370068 13.24091871 10.01907078 15.12046899 10 17 C14.29 17 18.58 17 23 17 C22.98839844 15.85660156 22.97679687 14.71320313 22.96484375 13.53515625 C22.95546712 12.04427246 22.94636679 10.55338691 22.9375 9.0625 C22.92912109 8.30775391 22.92074219 7.55300781 22.91210938 6.77539062 C22.90347559 4.85005687 22.94775667 2.92464419 23 1 C23.33 0.67 23.66 0.34 24 0 C26.97 0 29.94 0 33 0 C33 14.19 33 28.38 33 43 C29.7 43 26.4 43 23 43 C23 37.72 23 32.44 23 27 C18.71 27 14.42 27 10 27 C10 32.28 10 37.56 10 43 C6.7 43 3.4 43 0 43 C0 28.81 0 14.62 0 0 Z " fill="#E6E6E6" transform="translate(372,407)"/>
<path d="M0 0 C4.599375 -0.020625 9.19875 -0.04125 13.9375 -0.0625 C15.39019287 -0.071604 16.84288574 -0.08070801 18.33959961 -0.09008789 C19.47405518 -0.09258545 20.60851074 -0.09508301 21.77734375 -0.09765625 C23.52905884 -0.10551147 23.52905884 -0.10551147 25.31616211 -0.11352539 C28 0 28 0 29 1 C29 3.64 29 6.28 29 9 C22.73 9 16.46 9 10 9 C10 11.64 10 14.28 10 17 C14.62 17 19.24 17 24 17 C24 20.3 24 23.6 24 27 C19.38 27 14.76 27 10 27 C10 29.31 10 31.62 10 34 C16.27 34 22.54 34 29 34 C29 36.97 29 39.94 29 43 C19.43 43 9.86 43 0 43 C0 28.81 0 14.62 0 0 Z " fill="#E6E6E6" transform="translate(297,407)"/>
<path d="M0 0 C2.5625 2.1875 2.5625 2.1875 4 4 C2.02 5.98 0.04 7.96 -2 10 C-2.8353125 9.65775391 -2.8353125 9.65775391 -3.6875 9.30859375 C-9.33188717 7.18241412 -13.1066495 6.52666237 -19 8 C-22.67764287 9.99871895 -24.24333807 11.90624965 -25.5 15.8125 C-26.36660399 20.27884364 -25.43568543 23.11812634 -23 27 C-18.35413133 30.34934718 -14.51844075 30.44503554 -9 30 C-7.65909241 29.34870203 -6.32407669 28.68486725 -5 28 C-1.56823644 28.17158818 -0.27450612 28.75517021 2.3125 31.0625 C2.869375 31.701875 3.42625 32.34125 4 33 C2.86685062 36.39944813 2.53453437 36.59569101 -0.5 38.125 C-8.30733177 41.73693285 -15.85674254 41.54737797 -24 39 C-29.4038351 36.29808245 -32.9249623 32.12840164 -36 27 C-37.71932656 21.69788516 -37.53124533 16.68227688 -35.875 11.4375 C-31.78301549 3.93552841 -28.03544399 0.25874731 -19.734375 -2.34375 C-12.74437785 -4.02134932 -6.49638947 -3.05036755 0 0 Z " fill="#E2E2E2" transform="translate(365,410)"/>
<path d="M0 0 C3.63 0 7.26 0 11 0 C11 4.29 11 8.58 11 13 C12.63066406 12.9278125 14.26132812 12.855625 15.94140625 12.78125 C27.63475812 12.27914741 39.29482572 11.82870477 51 12 C51 15.63 51 19.26 51 23 C37.8 23 24.6 23 11 23 C11 26.96 11 30.92 11 35 C10 36 10 36 7.96875 36.1328125 C7.1540625 36.13023437 6.339375 36.12765625 5.5 36.125 C4.6853125 36.12757813 3.870625 36.13015625 3.03125 36.1328125 C1 36 1 36 0 35 C-0.08851529 32.40640678 -0.11525945 29.83960309 -0.09765625 27.24609375 C-0.09553383 26.08292381 -0.09553383 26.08292381 -0.09336853 24.89625549 C-0.08775345 22.40996506 -0.07519846 19.9237634 -0.0625 17.4375 C-0.05748694 15.75586067 -0.0529237 14.07421994 -0.04882812 12.39257812 C-0.03777913 8.26168434 -0.02050445 4.13085724 0 0 Z " fill="#E6E6E6" transform="translate(355,194)"/>
<path d="M0 0 C3.3 0 6.6 0 10 0 C10 10.23 10 20.46 10 31 C-6.83 31 -23.66 31 -41 31 C-41 27.37 -41 23.74 -41 20 C-27.47 20 -13.94 20 0 20 C0 13.4 0 6.8 0 0 Z " fill="#EBEBEB" transform="translate(396,277)"/>
<path d="M0 0 C10.89 0 21.78 0 33 0 C33 2.97 33 5.94 33 9 C29.37 9 25.74 9 22 9 C22 20.22 22 31.44 22 43 C18.37 43 14.74 43 11 43 C11 31.78 11 20.56 11 9 C7.37 9 3.74 9 0 9 C-1.125 2.25 -1.125 2.25 0 0 Z " fill="#E0E0E0" transform="translate(261,407)"/>
<path d="M0 0 C16.83 0 33.66 0 51 0 C51 3.63 51 7.26 51 11 C34.17 11 17.34 11 0 11 C0 7.37 0 3.74 0 0 Z " fill="#E3E3E3" transform="translate(355,179)"/>
<path d="M0 0 C0.66 0.33 1.32 0.66 2 1 C0.56354149 2.60509934 -0.87420706 4.20904424 -2.3125 5.8125 C-3.11300781 6.70582031 -3.91351563 7.59914063 -4.73828125 8.51953125 C-8.64426354 12.80329421 -8.64426354 12.80329421 -10 14 C-10.66 14 -11.32 14 -12 14 C-10.41332422 10.09714233 -7.86649519 7.66479018 -4.875 4.75 C-3.96492188 3.85796875 -3.05484375 2.9659375 -2.1171875 2.046875 C-1.41851562 1.37140625 -0.71984375 0.6959375 0 0 Z " fill="#B1B1B1" transform="translate(381,93)"/>
<path d="M0 0 C0 2 0 2 -1.6796875 3.69140625 C-2.40414063 4.30886719 -3.12859375 4.92632812 -3.875 5.5625 C-4.59429687 6.18253906 -5.31359375 6.80257813 -6.0546875 7.44140625 C-8 9 -8 9 -10 10 C-8.06029999 5.63567499 -5.33343768 0 0 0 Z " fill="#B0B0B0" transform="translate(369,314)"/>
<path d="M0 0 C0.66 0.33 1.32 0.66 2 1 C-0.64 3.64 -3.28 6.28 -6 9 C-6 5.06368636 -4.57142871 3.87394974 -2 1 C-1.34 0.67 -0.68 0.34 0 0 Z " fill="#9F9F9F" transform="translate(364,365)"/>
</svg>
