<svg id="svg" version="1.1" xmlns="http://www.w3.org/2000/svg" width="100%" viewBox="0 0 1024 1024" style="display: block;"><path d="M0 0 C337.92 0 675.84 0 1024 0 C1024 337.92 1024 675.84 1024 1024 C686.08 1024 348.16 1024 0 1024 C0 686.08 0 348.16 0 0 Z " transform="translate(0,0)" style="fill: #000000;"/><path d="M0 0 C21.64679288 1.39571779 42.24416102 9.70239965 58.5859375 24.01953125 C58.5859375 24.67953125 58.5859375 25.33953125 58.5859375 26.01953125 C59.15441406 26.23867187 59.72289062 26.4578125 60.30859375 26.68359375 C68.79987085 31.66475459 73.42678811 43.23858845 76.5859375 52.01953125 C76.89273438 52.78523438 77.19953125 53.5509375 77.515625 54.33984375 C80.94524235 62.93021863 82.10060483 72.84405408 80.5859375 82.01953125 C78.78968043 86.14157782 76.27582647 89.44028751 73.5859375 93.01953125 C72.57218519 94.77079488 71.59270509 96.54234503 70.6484375 98.33203125 C68.18584737 102.92843638 65.63527778 107.46476957 63.03710938 111.98583984 C60.84026071 115.81402186 58.66323708 119.65270724 56.5 123.5 C51.29086438 132.76136749 46.06472335 141.99668734 40.54931641 151.07958984 C37.93477562 155.39741452 35.48876262 159.78398061 33.1015625 164.23046875 C31.04306985 168.01851966 28.89487893 171.75325957 26.7487793 175.4921875 C24.2539183 179.84226151 21.78841237 184.20793922 19.3359375 188.58203125 C13.29778303 199.34111626 7.15421629 210.04004241 1.02441406 220.74707031 C-0.51805197 223.44178654 -2.05998993 226.1368038 -3.6015625 228.83203125 C-4.10260498 229.70786865 -4.60364746 230.58370605 -5.11987305 231.48608398 C-8.11822291 236.73331943 -11.08893742 241.9950652 -14.0390625 247.26953125 C-17.56654708 253.5754701 -21.21692075 259.80325832 -24.8972168 266.02099609 C-27.61156654 270.61923697 -30.20740258 275.26458382 -32.734375 279.96875 C-35.46267685 284.92410755 -38.32653668 289.8006999 -41.17114258 294.68994141 C-44.17398218 299.8578553 -47.12782037 305.0495509 -50.0390625 310.26953125 C-52.99025712 315.55568624 -56.03557342 320.77390517 -59.1640625 325.95703125 C-59.53781006 326.5819043 -59.91155762 327.20677734 -60.29663086 327.85058594 C-61.88062702 330.49708345 -63.48137072 333.12327927 -65.16015625 335.7109375 C-67.54457614 339.52988643 -68.49853402 341.17481601 -68.0390625 345.76953125 C-65.98480904 349.87803817 -63.57706251 352.93803125 -59.4140625 355.01953125 C-54.85531677 355.27757346 -51.47216451 355.1603341 -47.4140625 353.01953125 C-45.68371937 350.80449643 -45.68371937 350.80449643 -44.36328125 348.06640625 C-43.83387939 347.06174316 -43.30447754 346.05708008 -42.7590332 345.02197266 C-42.21206787 343.94866699 -41.66510254 342.87536133 -41.1015625 341.76953125 C-39.94386164 339.56319654 -38.78501369 337.35746334 -37.625 335.15234375 C-37.07038086 334.08790039 -36.51576172 333.02345703 -35.94433594 331.92675781 C-34.11425338 328.44995132 -32.19573206 325.04436277 -30.2265625 321.64453125 C-27.2579152 316.50552837 -24.35220701 311.33589253 -21.4765625 306.14453125 C-17.94523222 299.77051708 -14.39026299 293.41070396 -10.81103516 287.06347656 C-7.9693969 282.01916307 -5.15762067 276.95870641 -2.3515625 271.89453125 C8.09335792 253.06311968 8.09335792 253.06311968 13.7109375 243.89453125 C15.81126102 240.42786823 17.67521799 236.90817476 19.4609375 233.26953125 C23.75180126 224.53054695 28.6707734 216.15753791 33.7109375 207.83203125 C37.55651918 201.4640788 41.05793314 194.91639776 44.53125 188.33984375 C47.89474501 181.97897579 51.30127989 175.69705606 55.06591797 169.56103516 C56.57523214 167.03743083 57.99752991 164.48363975 59.3984375 161.8984375 C59.92195801 160.93405762 60.44547852 159.96967773 60.98486328 158.97607422 C61.51321777 158.00041504 62.04157227 157.02475586 62.5859375 156.01953125 C74.5581876 133.96704946 74.5581876 133.96704946 80.5703125 123.546875 C83.53342609 118.39160049 86.39332973 113.17784228 89.26220703 107.96972656 C89.66552246 107.23979492 90.06883789 106.50986328 90.484375 105.7578125 C90.84192871 105.10852783 91.19948242 104.45924316 91.56787109 103.7902832 C94.2556939 99.11527629 94.2556939 99.11527629 97.10546875 98.2890625 C124.07780808 94.54557056 151.14449194 96.55881323 173.5859375 113.01953125 C185.43535484 122.49906512 192.05956695 136.30073571 193.8449707 151.17797852 C194.22414176 157.52277412 192.26611629 161.28831 188.7734375 166.45703125 C187.75201552 168.04389209 186.73119845 169.63114243 185.7109375 171.21875 C185.18757812 172.01845215 184.66421875 172.8181543 184.125 173.64208984 C181.75669181 177.30049485 179.52247747 181.03713524 177.2734375 184.76953125 C172.51190767 192.59618242 167.58950229 200.31648377 162.65283203 208.03344727 C158.85783486 213.97985216 155.16141961 219.9724419 151.56152344 226.03857422 C148.96358343 230.41270657 146.25636215 234.7039502 143.5078125 238.984375 C141.11582039 242.76197229 138.78694367 246.57605937 136.4609375 250.39453125 C130.77412691 259.72814697 125.0247239 269.02219785 119.26513672 278.31103516 C116.43283071 282.87945662 113.60296542 287.44938875 110.7734375 292.01953125 C110.2280835 292.90036377 109.68272949 293.78119629 109.12084961 294.6887207 C104.93069987 301.45840936 100.75407614 308.23626495 96.5859375 315.01953125 C95.25275088 317.1862882 93.91941474 319.35295315 92.5859375 321.51953125 C91.9259375 322.59203125 91.2659375 323.66453125 90.5859375 324.76953125 C84.5859375 334.51953125 84.5859375 334.51953125 82.59375 337.75390625 C81.23090118 339.97052418 79.87164477 342.18935407 78.515625 344.41015625 C77.83757813 345.51875 77.15953125 346.62734375 76.4609375 347.76953125 C75.80867187 348.8471875 75.15640625 349.92484375 74.484375 351.03515625 C72.5859375 354.01953125 72.5859375 354.01953125 70.75 356.37890625 C65.85897644 362.67064548 65.61224998 368.21075012 66.5859375 376.01953125 C67.44309649 380.26277219 68.51503844 383.71065462 71.2734375 387.08203125 C75.27962942 388.70616311 79.53348203 388.84278693 83.56958008 387.22387695 C85.8810775 385.84324773 86.59631447 384.80632177 87.84765625 382.44921875 C88.23961182 381.72589355 88.63156738 381.00256836 89.03540039 380.25732422 C89.44395264 379.47760254 89.85250488 378.69788086 90.2734375 377.89453125 C91.16093331 376.24841474 92.04896448 374.60258678 92.9375 372.95703125 C93.38125977 372.126875 93.82501953 371.29671875 94.28222656 370.44140625 C96.18948807 366.89832869 98.1658167 363.39582034 100.1484375 359.89453125 C100.89348278 358.57305962 101.63827497 357.25144527 102.3828125 355.9296875 C102.93098633 354.95733154 102.93098633 354.95733154 103.49023438 353.96533203 C104.57115114 352.04578956 105.64932047 350.12473178 106.7265625 348.203125 C110.87372227 340.80901511 115.05847027 333.43771101 119.2734375 326.08203125 C124.45503278 317.03748756 129.5567753 307.94967907 134.6418457 298.85058594 C138.91152991 291.21367486 143.22551271 283.60495293 147.5859375 276.01953125 C148.89932681 273.7283672 150.21207723 271.43685546 151.5234375 269.14453125 C151.85279297 268.56912598 152.18214844 267.9937207 152.52148438 267.40087891 C154.64788536 263.67967719 156.75033804 259.94571242 158.84277344 256.20532227 C162.82429338 249.08987669 166.90856487 242.04397703 171.0637207 235.02856445 C173.82673646 230.35007384 176.45729236 225.61777658 179.0234375 220.828125 C180.97733859 217.31598779 183.06037779 213.89054956 185.1484375 210.45703125 C188.17757652 205.47348798 190.95008727 200.46251859 193.48046875 195.203125 C194.55148799 193.08757816 195.73429775 191.13314115 197.0234375 189.14453125 C199.11051907 185.91963263 200.79633026 182.60620785 202.4609375 179.14453125 C209.39536573 165.17007436 217.567528 156.28956218 232.5078125 151.02734375 C233.52359375 150.69476563 234.539375 150.3621875 235.5859375 150.01953125 C236.63007812 149.65859375 237.67421875 149.29765625 238.75 148.92578125 C257.5356385 142.9226571 276.70900271 148.6009021 293.5859375 157.01953125 C294.32312012 157.38530273 295.06030273 157.75107422 295.81982422 158.12792969 C323.39900274 171.95118942 323.39900274 171.95118942 328.5859375 179.01953125 C328.21156955 183.29052628 327.05815506 186.53285137 325.06640625 190.30078125 C324.54457764 191.2966626 324.02274902 192.29254395 323.48510742 193.31860352 C322.92025635 194.37490967 322.35540527 195.43121582 321.7734375 196.51953125 C320.90199097 198.17263306 320.90199097 198.17263306 320.01293945 199.85913086 C315.67307291 208.06318964 311.22667434 216.20840459 306.7565918 224.34204102 C303.59428945 230.11309851 300.5664866 235.9294084 297.6628418 241.83422852 C294.73256836 247.77969995 291.66400883 253.64944408 288.5859375 259.51953125 C284.95005751 266.45912717 281.35767572 273.4126248 277.88818359 280.43676758 C275.58541604 285.07469457 273.21778952 289.67774814 270.83203125 294.2734375 C270.4955809 294.9218158 270.15913055 295.57019409 269.81248474 296.23822021 C268.10789748 299.52148816 266.40000839 302.80299411 264.68823242 306.08251953 C264.05250951 307.30498073 263.41684619 308.52747291 262.78125 309.75 C261.93071045 311.38038208 261.93071045 311.38038208 261.06298828 313.04370117 C259.76082086 315.66719186 258.62476827 318.28301395 257.5859375 321.01953125 C258.45734375 321.63699219 259.32875 322.25445313 260.2265625 322.890625 C271.76916946 331.08915797 283.05693246 339.59842626 294.29248047 348.2109375 C298.51583972 351.44609334 302.75753914 354.6531958 307.0234375 357.83203125 C311.38412496 361.09219243 315.65850958 364.43928046 319.89453125 367.859375 C323.08343124 370.41882593 326.30278692 372.93774943 329.5234375 375.45703125 C334.77648794 379.5693179 339.95558178 383.76093719 345.09765625 388.01171875 C348.05897575 390.4012293 351.11085622 392.63926366 354.22265625 394.828125 C354.67253906 395.22128906 355.12242187 395.61445312 355.5859375 396.01953125 C355.5859375 396.67953125 355.5859375 397.33953125 355.5859375 398.01953125 C356.359375 398.35984375 356.359375 398.35984375 357.1484375 398.70703125 C360.48140755 400.50170743 363.73297421 402.5191814 366.5859375 405.01953125 C366.5859375 405.67953125 366.5859375 406.33953125 366.5859375 407.01953125 C367.17890625 407.29482666 367.771875 407.57012207 368.3828125 407.85375977 C370.48235655 408.96472196 372.054111 410.11466892 373.8359375 411.671875 C374.43849365 412.19571777 375.0410498 412.71956055 375.66186523 413.25927734 C376.29680908 413.81953613 376.93175293 414.37979492 377.5859375 414.95703125 C378.24730713 415.53533691 378.90867676 416.11364258 379.59008789 416.70947266 C384.78610815 421.27027803 389.89227859 425.92421832 394.96875 430.6171875 C397.08472382 432.55946197 399.22172595 434.45893826 401.3984375 436.33203125 C413.37442749 446.7487751 424.65729175 457.92835294 435.859375 469.16259766 C438.10822544 471.41687296 440.36246198 473.66566501 442.6171875 475.9140625 C444.07584202 477.37337695 445.53418677 478.8330011 446.9921875 480.29296875 C447.65271118 480.9514682 448.31323486 481.60996765 448.99377441 482.28842163 C453.38826026 486.70483367 457.53287557 491.28894689 461.5859375 496.01953125 C462.05058914 496.55659195 462.51524078 497.09365265 462.99397278 497.64698792 C483.11771825 520.95160507 503.80007421 547.05819539 511.7890625 577.24609375 C512.31095005 579.90599115 512.31095005 579.90599115 513.5859375 581.01953125 C514.66659327 593.4470726 515.68078267 607.23814889 508.5859375 618.01953125 C508.039375 618.880625 507.4928125 619.74171875 506.9296875 620.62890625 C500.47882722 629.64917698 489.29997774 638.27991719 478.39550781 640.73901367 C468.02591786 642.07484374 457.78513748 642.3751661 447.3359375 642.33203125 C446.46353424 642.33087311 445.59113098 642.32971497 444.69229126 642.32852173 C429.47411214 642.28877036 414.65542217 641.23408113 399.5859375 639.01953125 C397.93507722 638.79941655 396.28404527 638.58058402 394.6328125 638.36328125 C375.55533686 635.72577782 356.79297818 630.77006264 338.22802734 625.73193359 C335.1276085 624.89594928 332.02289791 624.07688273 328.91796875 623.2578125 C326.5780599 622.63696404 324.23821577 622.01587164 321.8984375 621.39453125 C320.79886719 621.10521729 319.69929687 620.81590332 318.56640625 620.51782227 C313.41964236 619.14221684 308.40800255 617.67773553 303.44897461 615.72998047 C300.09138414 614.44959936 296.64532804 613.44677005 293.2109375 612.39453125 C276.26733976 607.11765985 259.47045726 601.28267393 242.90722656 594.91064453 C240.05010112 593.8138305 237.18894324 592.72776992 234.328125 591.640625 C232.03891111 590.76732383 229.74984925 589.89362404 227.4609375 589.01953125 C225.86958984 588.41443726 225.86958984 588.41443726 224.24609375 587.79711914 C217.51509255 585.215415 210.88405222 582.45295659 204.26806641 579.59033203 C200.39172636 577.92464894 196.48479781 576.33918561 192.5703125 574.765625 C191.89481354 574.49368317 191.21931458 574.22174133 190.52334595 573.94155884 C187.764421 572.83196492 185.00481562 571.72412992 182.24316406 570.62133789 C174.92926687 567.69766139 167.68909116 564.75282951 160.70800781 561.08227539 C158.37788403 559.91533696 156.01518317 558.96187886 153.5859375 558.01953125 C150.28229086 556.73564962 147.12603836 555.33265726 143.97265625 553.71484375 C138.51348844 550.9575253 132.96888907 548.4175665 127.3984375 545.89453125 C117.18498325 541.24207988 107.04653793 536.44844326 96.93359375 531.58203125 C92.87066936 529.62846532 88.79213165 527.71235044 84.70263672 525.81518555 C77.51266282 522.47562097 70.50180162 518.90818948 63.53515625 515.12548828 C59.7798499 513.10584561 55.97532833 511.19997174 52.15234375 509.3125 C43.72332441 505.12235415 35.39718342 500.75017468 27.0859375 496.33203125 C25.59506157 495.54099774 24.10417601 494.74998239 22.61328125 493.95898438 C-19.07459412 471.82246506 -60.52266369 448.98157571 -100.65185547 424.10742188 C-103.31628315 422.46254937 -105.99052447 420.83386669 -108.6640625 419.20385742 C-123.32215537 410.26681056 -137.98356162 401.32099656 -152.4140625 392.01953125 C-153.01041504 391.63651855 -153.60676758 391.25350586 -154.22119141 390.85888672 C-164.68852458 384.13446475 -175.06828122 377.28591724 -185.40576172 370.36376953 C-188.19758239 368.49508917 -190.99323021 366.63220439 -193.7890625 364.76953125 C-195.18898438 363.83560547 -195.18898438 363.83560547 -196.6171875 362.8828125 C-198.56352139 361.58616269 -200.51156822 360.29208194 -202.4609375 359 C-212.38345112 352.4143723 -222.09469656 345.55253 -231.77734375 338.62109375 C-234.14712483 336.9246827 -236.51941921 335.2319075 -238.89453125 333.54296875 C-246.27163279 328.29385723 -253.59441807 322.97564087 -260.88671875 317.609375 C-263.92506135 315.37450704 -266.98007876 313.16358411 -270.0390625 310.95703125 C-279.95308967 303.75215478 -289.55958933 296.13855997 -299.1875 288.55859375 C-301.88376833 286.43593248 -304.58336002 284.31766515 -307.2890625 282.20703125 C-307.97613281 281.67078125 -308.66320312 281.13453125 -309.37109375 280.58203125 C-312.19667612 278.42097399 -315.08208028 276.34345622 -317.98046875 274.28125 C-318.45355469 273.86488281 -318.92664063 273.44851563 -319.4140625 273.01953125 C-319.4140625 272.35953125 -319.4140625 271.69953125 -319.4140625 271.01953125 C-319.97351563 270.76945312 -320.53296875 270.519375 -321.109375 270.26171875 C-326.0369265 267.60585201 -330.14846313 263.61573988 -334.4140625 260.01953125 C-334.96449219 259.55691895 -335.51492188 259.09430664 -336.08203125 258.61767578 C-343.14113839 252.67114531 -350.06289306 246.60139381 -356.80029297 240.29174805 C-359.58178833 237.68954129 -362.40124469 235.14605615 -365.27734375 232.6484375 C-369.5206303 228.95272063 -373.63524321 225.13214325 -377.7265625 221.26953125 C-378.83523682 220.22345703 -378.83523682 220.22345703 -379.96630859 219.15625 C-387.78038125 211.75935926 -395.56967872 204.35531983 -402.5546875 196.15625 C-404.40934495 194.02495247 -406.32702536 191.96143803 -408.25854492 189.89990234 C-414.75722513 182.93953025 -420.66828865 175.60901389 -426.4140625 168.01953125 C-427.12433594 167.08238281 -427.83460938 166.14523437 -428.56640625 165.1796875 C-439.1453112 150.91387706 -447.44369666 135.85542912 -455.4140625 120.01953125 C-455.76162598 119.33906738 -456.10918945 118.65860352 -456.46728516 117.95751953 C-460.27833406 110.46101544 -462.68479798 103.07724953 -464.65234375 94.94140625 C-465.1176665 92.14730713 -465.1176665 92.14730713 -466.4140625 91.01953125 C-467.61300512 78.27988947 -468.68017373 64.53166825 -460.4140625 54.01953125 C-459.90746094 53.35566406 -459.40085937 52.69179688 -458.87890625 52.0078125 C-450.47954621 42.49404105 -438.47324818 38.47861466 -426.4140625 36.01953125 C-425.71458496 35.87 -425.01510742 35.72046875 -424.29443359 35.56640625 C-385.78426047 27.56608374 -341.06640643 35.53933412 -303.50292969 45.48535156 C-300.3646973 46.28788224 -297.20669948 46.99976424 -294.04956055 47.72363281 C-264.69204021 54.50074635 -235.73381312 63.74312433 -208.05078125 75.6328125 C-201.67673414 78.36391693 -195.21047139 80.82565973 -188.71264648 83.24462891 C-183.27011841 85.2785187 -177.90406988 87.45962703 -172.54736328 89.7097168 C-168.32067786 91.47659908 -164.07409039 93.19280486 -159.82788086 94.91210938 C-148.77565582 99.38871542 -137.77309031 103.95913223 -126.828125 108.69140625 C-122.79133665 110.43466821 -118.74240214 112.14695499 -114.6875 113.84765625 C-112.95415405 114.5756543 -112.95415405 114.5756543 -111.18579102 115.31835938 C-108.94780702 116.25721017 -106.70877833 117.19357621 -104.46850586 118.12695312 C-99.62717985 120.16095229 -94.87485922 122.25199977 -90.20703125 124.66015625 C-85.74321746 126.94901228 -81.21700429 128.59257028 -76.4140625 130.01953125 C-76.01634644 129.29141235 -76.01634644 129.29141235 -75.6105957 128.54858398 C-66.03306916 111.03230221 -56.22107348 93.65224121 -46.30078125 76.328125 C-44.17924393 72.60774796 -42.07525221 68.87782915 -39.9765625 65.14453125 C-39.41340332 64.14317139 -39.41340332 64.14317139 -38.83886719 63.12158203 C-36.94015991 59.74311959 -35.04655078 56.36191578 -33.16015625 52.9765625 C-29.04615938 45.60780997 -24.82267248 38.32712695 -20.4440918 31.11230469 C-18.23370991 27.44975045 -16.20870581 23.76998067 -14.37109375 19.91015625 C-12.71775646 16.64397157 -10.77553601 13.55003083 -8.87109375 10.42578125 C-7.57682141 8.28832345 -6.32819564 6.13374751 -5.1015625 3.95703125 C-2.84158144 0.02299014 -2.84158144 0.02299014 0 0 Z " transform="translate(488.4140625,212.98046875)" style="fill: #96D545;"/><path d="M0 0 C1.50074709 0.91237186 3.00207137 1.82379484 4.50390625 2.734375 C5.28008301 3.20939453 6.05625977 3.68441406 6.85595703 4.17382812 C10.84780587 6.5935252 14.89306914 8.91963552 18.9375 11.25 C20.14805054 11.95008179 20.14805054 11.95008179 21.38305664 12.66430664 C25.89226607 15.2712292 30.41080813 17.86102125 34.9375 20.4375 C41.36165855 24.09768881 47.7429575 27.82944902 54.125 31.5625 C61.57575185 35.91989015 69.04699225 40.229695 76.58544922 44.43334961 C82.07331352 47.5023618 87.48570512 50.69263843 92.89624023 53.89550781 C97.64721049 56.70099785 102.43241335 59.43570024 107.25 62.125 C113.44262838 65.58386333 119.57050219 69.14102935 125.67700195 72.74951172 C136.37711678 79.07036779 147.13686813 85.29005298 157.9375 91.4375 C164.36165855 95.09768881 170.7429575 98.82944902 177.125 102.5625 C184.57575185 106.91989015 192.04699225 111.229695 199.58544922 115.43334961 C205.06815465 118.49947677 210.47575709 121.68626405 215.88085938 124.88671875 C221.39147463 128.14137836 226.95011701 131.30216574 232.546875 134.40625 C236.97213521 136.8699923 241.31340848 139.45698537 245.65063477 142.07226562 C249.89861133 144.60980023 254.19885996 147.05402532 258.5 149.5 C259.86862183 150.28044678 259.86862183 150.28044678 261.26489258 151.07666016 C264.64665376 153.00492268 268.02966841 154.93097255 271.41357422 156.85546875 C285.37099198 164.79333667 285.37099198 164.79333667 290.51953125 168.02734375 C292.72617555 169.318499 294.89194595 170.41764942 297.19921875 171.50390625 C307.56788023 176.6162576 307.56788023 176.6162576 309.3125 181.75390625 C309.38137249 185.53758873 308.9420291 188.90486567 308.25 192.625 C308.06824219 193.91019531 307.88648438 195.19539062 307.69921875 196.51953125 C307.08077066 200.60491472 306.21943904 204.60957771 305.25 208.625 C305.08902832 209.29321777 304.92805664 209.96143555 304.76220703 210.64990234 C300.03297093 229.42601457 289.89272474 245.38677089 273.13476562 255.55224609 C242.61416295 272.92368757 204.97477394 267.87943706 172.60498047 259.01269531 C125.26876071 245.47425869 81.0173685 221.7747765 41.328125 192.8515625 C37.59102404 190.14832957 33.77896499 187.56398623 29.9453125 185 C29.38585937 184.54625 28.82640625 184.0925 28.25 183.625 C28.25 182.965 28.25 182.305 28.25 181.625 C27.38375 181.22087891 27.38375 181.22087891 26.5 180.80859375 C18.76783418 176.74115235 12.44142838 170.1526629 6.08984375 164.24609375 C3.84524635 162.17439519 1.57609821 160.16540887 -0.75 158.1875 C-9.01783617 151.00708278 -16.75905472 143.04782564 -23.75 134.625 C-24.33652344 133.93921875 -24.92304688 133.2534375 -25.52734375 132.546875 C-42.0734282 112.65096978 -58.83793168 87.19427739 -57.4921875 60.25390625 C-55.88026189 44.12592128 -49.01700114 26.90585193 -39.75 13.625 C-39.11449219 12.69945312 -38.47898438 11.77390625 -37.82421875 10.8203125 C-27.83490015 -2.67227415 -15.11440789 -9.48756206 0 0 Z " transform="translate(286.75,603.375)" style="fill: #535154;"/><path d="M0 0 C1.66796875 1.3984375 1.66796875 1.3984375 3.1875 3.375 C8.48128321 9.86824607 14.18434292 16.23707945 21.125 21 C22.07375 21.66 23.0225 22.32 24 23 C24 23.66 24 24.32 24 25 C24.53753906 25.24492188 25.07507813 25.48984375 25.62890625 25.7421875 C28.58295966 27.30924714 31.21002764 29.18980947 33.9375 31.125 C40.46469048 35.69329517 47.12713307 39.96470269 54 44 C55.09183594 44.64710938 56.18367187 45.29421875 57.30859375 45.9609375 C73.4482392 55.21039829 91.29735162 61.03123828 109.37109375 65.125 C113 66 113 66 114 67 C114.25858465 68.46132436 114.45599154 69.9335237 114.62866211 71.4074707 C114.74238663 72.37428268 114.85611115 73.34109467 114.97328186 74.33720398 C115.15473 75.95886223 115.15473 75.95886223 115.33984375 77.61328125 C115.46955063 78.7563826 115.59925751 79.89948395 115.7328949 81.07722473 C117.61574963 98.08678559 119.05644152 115.14139989 120.5625 132.1875 C121.09228625 138.18237567 121.6243758 144.17703108 122.16178703 150.17122841 C122.37156127 152.52312028 122.57745333 154.87532875 122.78309631 157.22758484 C123.49781124 165.2801963 124.41001129 173.26914687 125.51786804 181.27937317 C126.36800316 187.83989149 126.93045389 194.42679324 127.5078125 201.015625 C127.63922746 202.48917823 127.77089567 203.96270889 127.90280151 205.43621826 C128.17532732 208.48806624 128.44572692 211.54009171 128.71435547 214.59228516 C129.05859543 218.50302796 129.40696087 222.41338969 129.75671577 226.32364273 C130.02720392 229.35007885 130.29625118 232.37664155 130.564785 235.40325165 C130.69288543 236.8465808 130.82127278 238.28988452 130.94995499 239.73316193 C131.12832109 241.73767703 131.30468719 243.74236979 131.48095703 245.74707031 C131.58151398 246.88541321 131.68207092 248.0237561 131.78567505 249.19659424 C132 252 132 252 132 255 C126.89210811 254.58302923 122.25927195 253.55818891 117.328125 252.15234375 C109.35114288 249.95823842 101.30867701 248.50586398 93.14672852 247.18969727 C90.80256489 246.81089455 88.46086356 246.41897186 86.11914062 246.02539062 C58.85137555 241.50307491 33.64167689 242.08736577 6.99194336 249.45922852 C5.00074294 249.99979831 3.00327475 250.50626076 1 251 C0.63648438 250.18917969 0.27296875 249.37835938 -0.1015625 248.54296875 C-1.7039029 245.01371131 -3.34520398 241.5049499 -5 238 C-5.433125 237.05769531 -5.86625 236.11539063 -6.3125 235.14453125 C-12.35938339 222.96078109 -22.50847931 213.09985673 -34 206 C-34.58281738 205.6395459 -35.16563477 205.2790918 -35.76611328 204.90771484 C-57.83768214 191.55324923 -84.3244261 185.81699574 -110 187 C-111.77651281 182.43689996 -113.33654592 177.96132048 -114.58227539 173.21899414 C-121.15106292 148.63110344 -134.97826089 127.70393404 -153 110 C-153.89847656 109.11441406 -154.79695312 108.22882813 -155.72265625 107.31640625 C-165.79871272 97.84714874 -177.67149618 91.95542531 -190 86 C-190 85.01 -190 84.02 -190 83 C-182.14550849 79.23853318 -174.26317629 75.63867466 -166.1875 72.375 C-160.76241917 70.17963891 -155.49026857 67.85307678 -150.28515625 65.16796875 C-142.0467506 60.95722809 -133.45386879 57.50750113 -124.92041016 53.95092773 C-119.90333927 51.84507693 -115.02054088 49.59318126 -110.19140625 47.08203125 C-106.99288526 45.50272588 -103.68267808 44.25103963 -100.359375 42.9609375 C-98.21422897 42.0872522 -96.18160885 41.12479796 -94.125 40.0625 C-90.81695025 38.35490347 -87.44481887 36.91159871 -84 35.5 C-80.59919538 34.10567011 -77.26542506 32.68713628 -74 31 C-70.83256628 29.36730221 -67.60924564 27.97817403 -64.3125 26.625 C-59.04628093 24.46080038 -53.88273444 22.12741259 -48.72265625 19.72265625 C-43.4682165 17.28057361 -38.17943902 14.91405319 -32.89038086 12.5480957 C-28.39443751 10.53551262 -23.91119602 8.50041538 -19.4453125 6.421875 C-18.09288452 5.79792847 -18.09288452 5.79792847 -16.71313477 5.16137695 C-14.98355306 4.36277761 -13.2572882 3.55694351 -11.53491211 2.74291992 C-3.79250738 -0.81268015 -3.79250738 -0.81268015 0 0 Z " transform="translate(696,99)" style="fill: #FEB065;"/><path d="M0 0 C2.66907238 1.14388816 4.30186009 2.73147674 6.3984375 4.7421875 C10.3505794 8.40543014 14.39364433 11.81994736 18.6484375 15.1171875 C23.93358015 19.21771662 29.15430183 23.38650009 34.3359375 27.6171875 C42.82774135 34.53729003 51.42490719 41.22864298 60.31542969 47.63183594 C62.24677109 49.02871808 64.17027954 50.43605063 66.09375 51.84375 C76.55135946 59.47682216 87.18207047 66.79043116 98.0234375 73.8671875 C98.66297363 74.28484375 99.30250977 74.7025 99.96142578 75.1328125 C103.96407184 77.73987565 107.9894431 80.30892631 112.0234375 82.8671875 C112.96058594 83.47433594 113.89773438 84.08148437 114.86328125 84.70703125 C140.38029117 100.90776372 167.65825861 115.36610257 198.0234375 118.8671875 C198.24554355 125.37719233 197.41935571 131.35295085 196.2109375 137.7421875 C196.04529297 138.67160156 195.87964844 139.60101562 195.70898438 140.55859375 C194.00312009 149.78957255 191.62117558 158.42938059 187.3359375 166.8046875 C186.98853516 167.48853516 186.64113281 168.17238281 186.28320312 168.87695312 C176.32759238 187.98096293 162.14044457 200.0130045 141.86254883 206.94824219 C133.26179338 209.61253445 125.44426656 210.53608604 116.4609375 210.4296875 C115.15753418 210.42090576 113.85413086 210.41212402 112.51123047 210.40307617 C101.11281407 210.16534619 90.87410633 208.19849224 80.0234375 204.8671875 C78.58684826 204.46418709 77.14937187 204.06433292 75.7109375 203.66796875 C54.90188444 197.76589925 34.51251347 186.5036607 17.0234375 173.8671875 C16.00507813 173.13371094 14.98671875 172.40023437 13.9375 171.64453125 C5.6584658 165.54153453 -1.83847771 158.67644006 -9.23681641 151.54394531 C-10.82293453 150.0152533 -12.42025062 148.49925947 -14.01953125 146.984375 C-34.80389338 126.87425875 -52.41847255 99.51174521 -53.4453125 69.95800781 C-53.67141486 50.30829989 -47.55983804 35.52327963 -34.15234375 20.98828125 C-27.87343174 14.8671875 -27.87343174 14.8671875 -24.9765625 14.8671875 C-24.9765625 14.2071875 -24.9765625 13.5471875 -24.9765625 12.8671875 C-23.29589844 11.66210938 -23.29589844 11.66210938 -20.9609375 10.3359375 C-20.12175781 9.85511719 -19.28257812 9.37429688 -18.41796875 8.87890625 C-17.52980469 8.38003906 -16.64164063 7.88117187 -15.7265625 7.3671875 C-14.85386719 6.86832031 -13.98117188 6.36945312 -13.08203125 5.85546875 C-2.5041629 -0.16826391 -2.5041629 -0.16826391 0 0 Z " transform="translate(248.9765625,773.1328125)" style="fill: #535154;"/><path d="M0 0 C14.62162702 7.00136109 26.45916581 18.87065493 38 30 C38.54430664 30.5170752 39.08861328 31.03415039 39.64941406 31.56689453 C50.1950452 41.59340637 59.23957596 52.67954243 67 65 C67.61230469 65.91394531 68.22460938 66.82789063 68.85546875 67.76953125 C77.3907197 80.89433687 87.47909784 99.1284276 85.5625 115.1875 C83.60317629 124.2169135 79.11366073 129.84918063 71.44140625 134.80859375 C64.6709543 138.1125743 58.31174681 138.31943959 50.9375 138.25 C49.88038818 138.24250732 48.82327637 138.23501465 47.73413086 138.22729492 C28.36880591 137.96874393 9.87553313 135.27345045 -9 131 C-10.11544189 130.74863281 -10.11544189 130.74863281 -11.25341797 130.4921875 C-28.07671142 126.60069301 -43.78606517 120.0486623 -59 112 C-59.66 111.67 -60.32 111.34 -61 111 C-59.71169034 106.10442328 -57.45043593 102.26826168 -54.82421875 98.0078125 C-52.72412488 94.54513097 -50.72919319 91.0327349 -48.75 87.5 C-48.36956543 86.82130859 -47.98913086 86.14261719 -47.59716797 85.44335938 C-43.0444471 77.30690253 -38.52172744 69.15370681 -34 61 C-26.59362364 47.64461265 -19.14485724 34.31478969 -11.6171875 21.02734375 C-11.02977783 19.98989014 -10.44236816 18.95243652 -9.8371582 17.88354492 C-8.67255916 15.82719209 -7.50706154 13.77134784 -6.34057617 11.71606445 C-5.53970581 10.30200317 -5.53970581 10.30200317 -4.72265625 8.859375 C-4.24578369 8.01858398 -3.76891113 7.17779297 -3.27758789 6.31152344 C-2.127981 4.23155439 -1.04418779 2.13445623 0 0 Z " transform="translate(723,564)" style="fill: #000000;"/><path d="M0 0 C2.88376563 0.33865338 5.768806 0.66396304 8.65429688 0.98754883 C19.90778677 2.27159717 31.03255244 3.88962989 42.15429688 6.02856445 C43.24333313 6.23517197 43.24333313 6.23517197 44.35437012 6.44595337 C48.87239791 7.30375172 53.38566492 8.18345177 57.89599609 9.08081055 C60.18027343 9.53371483 62.46607272 9.97836243 64.75195312 10.4230957 C72.05902751 11.86412756 79.15622503 13.42019222 86.15429688 16.02856445 C82.63099751 22.71068393 78.63297343 29.00423752 74.50976562 35.32446289 C71.40222579 40.09086849 68.34413448 44.88274644 65.34179688 49.71606445 C61.34824122 56.14304175 57.29066228 62.52722289 53.21679688 68.90356445 C48.89408632 75.67344376 44.63058055 82.4722915 40.46679688 89.34106445 C36.00302192 96.70371362 31.37555054 103.94741233 26.66992188 111.1574707 C23.91713009 115.37696489 21.24407382 119.64357468 18.59179688 123.92700195 C17.25838393 125.87639371 15.8855483 127.43127892 14.15429688 129.02856445 C13.66960937 128.53227539 13.18492187 128.03598633 12.68554688 127.5246582 C12.01523437 126.84532227 11.34492188 126.16598633 10.65429688 125.46606445 C9.67976563 124.47413086 9.67976563 124.47413086 8.68554688 123.4621582 C6.63706358 121.4927059 4.5588221 119.63229039 2.40820312 117.77856445 C-2.05481778 113.90059348 -6.24014934 109.78175021 -10.40820312 105.59106445 C-11.48231445 104.52275391 -11.48231445 104.52275391 -12.578125 103.43286133 C-16.65329981 99.35027037 -20.55038528 95.16915577 -24.31567383 90.79931641 C-26.214979 88.60118964 -28.18615894 86.47393554 -30.15820312 84.34106445 C-35.41989101 78.50667584 -40.14808799 72.31777403 -44.84570312 66.02856445 C-45.93431641 64.58223633 -45.93431641 64.58223633 -47.04492188 63.10668945 C-57.27966542 49.30440673 -64.2033599 36.67810256 -62.84570312 19.02856445 C-61.60056663 12.97171403 -58.51442705 8.06111062 -53.84570312 4.02856445 C-38.56680127 -5.8795719 -17.01120605 -2.00292306 0 0 Z " transform="translate(311.845703125,353.971435546875)" style="fill: #000000;"/><path d="M0 0 C0.99308006 5.90951923 1.2402646 11.72356973 1.38891602 17.70874023 C1.41832275 18.76314804 1.44772949 19.81755585 1.47802734 20.90391541 C1.5738054 24.37204925 1.66388826 27.84030602 1.75390625 31.30859375 C1.81938616 33.71998536 1.88522266 36.13136732 1.95140076 38.54273987 C2.12427861 44.87685098 2.29232061 51.21108146 2.45935059 57.54534912 C2.63078311 64.01403588 2.80679611 70.48259784 2.98242188 76.95117188 C3.3260937 89.63399653 3.66481173 102.31694844 4 115 C-28.98175625 109.95434778 -70.89880164 80.77076713 -91 55 C-94 50.5 -94 50.5 -94 48 C-66.34344671 33.07572166 -66.34344671 33.07572166 -57.9375 28.9375 C-50.83137106 25.43809246 -43.7855013 21.82682015 -36.75 18.1875 C-35.59298584 17.5891333 -34.43597168 16.9907666 -33.24389648 16.37426758 C-25.07961481 12.13081241 -16.99464058 7.76072713 -9.00292969 3.19995117 C-8.24915039 2.77560791 -7.49537109 2.35126465 -6.71875 1.9140625 C-5.74325195 1.3564624 -5.74325195 1.3564624 -4.74804688 0.78759766 C-3 0 -3 0 0 0 Z " transform="translate(807,41)" style="fill: #535154;"/><path d="M0 0 C7.53145062 7.0566131 11.00641216 15.11168473 11.5 25.3125 C11.30407206 34.71704123 7.75190854 42.5307853 1.45703125 49.48828125 C-5.86970278 56.31779181 -14.479273 59.83653047 -24.5234375 59.6484375 C-33.04570243 58.81774742 -41.84080043 54.39967273 -47.76953125 48.29296875 C-54.40515833 40.09273066 -57.53111371 31.62318933 -56.4375 21.01171875 C-54.635428 11.69565009 -50.07198684 3.42770746 -42.39453125 -2.26171875 C-28.49821415 -11.15967063 -12.88083456 -10.47641211 0 0 Z " transform="translate(94.6875,622.5625)" style="fill: #535154;"/><path d="M0 0 C6.93210493 4.87913539 13.00509247 12.19809442 14.59375 20.6796875 C15.53545378 31.72436149 14.95121287 41.38309172 7.90625 50.4296875 C0.55447739 58.28271733 -7.48736044 61.68319189 -18.15625 62.0546875 C-27.17591864 61.90132438 -35.18999409 59.7791763 -41.84375 53.4453125 C-49.59093138 44.69099754 -51.86176203 36.74606122 -51.65234375 25.1171875 C-50.95001327 15.30685698 -46.48106548 8.75450298 -39.65625 1.9296875 C-27.04359312 -6.80215188 -13.49583202 -7.40518056 0 0 Z " transform="translate(983.40625,482.3203125)" style="fill: #535154;"/><path d="M0 0 C4.43608023 3.29357289 7.45776425 7.408449 9.19921875 12.6328125 C9.78151854 20.91938649 10.08676877 27.83113573 4.6875 34.5 C0.35223546 39.19572473 -3.86504991 42.21386658 -10.40625 42.91015625 C-18.48817034 43.18884316 -24.56507081 41.97582643 -30.61328125 36.4453125 C-35.87739474 30.70045805 -37.37323517 24.79030888 -37.078125 17.08203125 C-36.30517529 10.25612322 -33.74621898 5.7300874 -28.671875 1.109375 C-20.18161217 -5.5906654 -9.13992493 -5.15132645 0 0 Z " transform="translate(433.80078125,111.3671875)" style="fill: #535154;"/></svg>